<svg width="90" height="90" viewBox="0 0 90 90" fill="none" xmlns="http://www.w3.org/2000/svg">
<path d="M45 0C20.1472 0 0 20.1472 0 45C0 69.8528 20.1472 90 45 90C69.8528 90 90 69.8528 90 45C90 20.1472 69.8528 0 45 0Z" fill="#059E6F"/>
<path fill-rule="evenodd" clip-rule="evenodd" d="M64.6779 27.7844C66.4194 29.3323 66.5758 31.9989 65.0284 33.7403L42.5281 59.0529C41.7562 59.9214 40.6603 60.4327 39.4989 60.4671C38.3375 60.5014 37.2135 60.0548 36.3919 59.2329L25.1419 47.9832C23.4944 46.3356 23.4944 43.6645 25.1419 42.017C26.7894 40.3694 29.4606 40.3694 31.1081 42.017L39.1944 50.1032L58.7216 28.1348C60.2696 26.3933 62.9364 26.2365 64.6779 27.7844Z" fill="white"/>
</svg>
